%TF.GenerationSoftware,KiCad,Pcbnew,10.0.1*%
%TF.CreationDate,2026-07-08T16:20:48+03:00*%
%TF.ProjectId,PSFB_MCU,50534642-5f4d-4435-952e-6b696361645f,rev?*%
%TF.SameCoordinates,Original*%
%TF.FileFunction,Profile,NP*%
%FSLAX46Y46*%
G04 Gerber Fmt 4.6, Leading zero omitted, Abs format (unit mm)*
G04 Created by KiCad (PCBNEW 10.0.1) date 2026-07-08 16:20:48*
%MOMM*%
%LPD*%
G01*
G04 APERTURE LIST*
%TA.AperFunction,Profile*%
%ADD10C,0.050000*%
%TD*%
G04 APERTURE END LIST*
D10*
X36000002Y-46500002D02*
X36000002Y-136499998D01*
X36000002Y-46500002D02*
G75*
G02*
X40500002Y-42000002I4499998J2D01*
G01*
X40500002Y-140999998D02*
G75*
G02*
X36000002Y-136499998I-2J4499998D01*
G01*
X40500002Y-140999998D02*
X210500000Y-141000000D01*
X78750000Y-101250000D02*
G75*
G02*
X78750000Y-99750000I0J750000D01*
G01*
X78750000Y-101250000D02*
X87750000Y-101250000D01*
X87750000Y-99750000D02*
X78750000Y-99750000D01*
X87750000Y-99750000D02*
G75*
G02*
X87750000Y-101250000I0J-750000D01*
G01*
X98750000Y-101250000D02*
G75*
G02*
X98750000Y-99750000I0J750000D01*
G01*
X98750000Y-101250000D02*
X107750000Y-101250000D01*
X107750000Y-99750000D02*
X98750000Y-99750000D01*
X107750000Y-99750000D02*
G75*
G02*
X107750000Y-101250000I0J-750000D01*
G01*
X119000000Y-98750000D02*
X125000000Y-98750000D01*
X119000000Y-100250000D02*
G75*
G02*
X119000000Y-98750000I0J750000D01*
G01*
X119000000Y-100250000D02*
X125000000Y-100250000D01*
X125000000Y-98750000D02*
G75*
G02*
X125000000Y-100250000I0J-750000D01*
G01*
X140000000Y-98750000D02*
X145500000Y-98750000D01*
X140000000Y-100250000D02*
G75*
G02*
X140000000Y-98750000I0J750000D01*
G01*
X140000000Y-100250000D02*
X145500000Y-100250000D01*
X145500000Y-98750000D02*
G75*
G02*
X145500000Y-100250000I0J-750000D01*
G01*
X149750000Y-98750000D02*
X155250000Y-98750000D01*
X149750000Y-100250000D02*
G75*
G02*
X149750000Y-98750000I0J750000D01*
G01*
X149750000Y-100250000D02*
X155250000Y-100250000D01*
X155250000Y-100250000D02*
X176250000Y-100250000D01*
X176250000Y-98750000D02*
X155250000Y-98750000D01*
X176250000Y-98750000D02*
G75*
G02*
X176250000Y-100250000I0J-750000D01*
G01*
X210499998Y-42000002D02*
X40500002Y-42000002D01*
X210499998Y-42000002D02*
G75*
G02*
X214999998Y-46500002I2J-4499998D01*
G01*
X215000000Y-136500000D02*
G75*
G02*
X210500000Y-141000000I-4500000J0D01*
G01*
X215000000Y-136500000D02*
X214999998Y-46500002D01*
M02*
