M48
; DRILL file KiCad 10.0.1 date 2026-07-08T16:20:51
; FORMAT={-:-/ absolute / metric / decimal}
; #@! TF.CreationDate,2026-07-08T16:20:51+03:00
; #@! TF.GenerationSoftware,Kicad,Pcbnew,10.0.1
; #@! TF.FileFunction,Plated,1,4,PTH
FMAT,2
METRIC
; #@! TA.AperFunction,Plated,PTH,ViaDrill
T1C0.200
; #@! TA.AperFunction,Plated,PTH,ViaDrill
T2C0.300
; #@! TA.AperFunction,Plated,PTH,ComponentDrill
T3C0.300
; #@! TA.AperFunction,Plated,PTH,ViaDrill
T4C0.400
; #@! TA.AperFunction,Plated,PTH,ComponentDrill
T5C0.800
; #@! TA.AperFunction,Plated,PTH,ComponentDrill
T6C1.000
; #@! TA.AperFunction,Plated,PTH,ComponentDrill
T7C1.500
; #@! TA.AperFunction,Plated,PTH,ComponentDrill
T8C1.800
%
G90
G05
T1
X57.557Y-53.942
X58.828Y-57.078
X60.097Y-57.152
X61.367Y-53.867
X61.367Y-59.117
X63.557Y-53.942
X64.828Y-57.078
X66.097Y-57.097
X67.367Y-53.867
X67.367Y-59.117
X68.75Y-47.867
X69.557Y-53.942
X70.25Y-47.867
X70.828Y-57.078
X71.75Y-47.867
X72.097Y-57.152
X73.25Y-47.867
X73.367Y-53.867
X73.75Y-58.0
X74.0Y-50.15
X74.25Y-47.867
X75.557Y-53.942
X75.75Y-48.0
X76.828Y-57.078
X78.097Y-57.152
X79.367Y-53.867
X79.95Y-51.0
X80.0Y-58.0
X82.5Y-80.0
X84.0Y-51.0
X84.0Y-75.0
X84.0Y-75.7
X84.0Y-83.025
X84.0Y-84.0
X84.0Y-85.0
X88.5Y-79.05
X88.5Y-80.253
X88.899Y-75.798
X88.958Y-78.373
X89.048Y-80.953
X96.124Y-79.028
X96.151Y-80.25
X96.215Y-76.4
X96.3Y-78.35
X96.5Y-75.0
X98.25Y-82.75
X101.5Y-69.5
X103.0Y-82.5
X128.0Y-88.5
X129.0Y-78.5
X130.5Y-81.0
X138.75Y-76.75
X139.5Y-76.7
X141.75Y-78.5
X142.0Y-76.25
X144.0Y-64.75
X144.5Y-83.537
X146.75Y-70.0
X146.75Y-80.5
X147.0Y-64.75
X147.213Y-76.037
X148.5Y-61.75
X149.375Y-76.125
X150.5Y-86.0
X151.0Y-61.75
X151.5Y-76.85
X152.0Y-72.5
X152.0Y-78.5
X152.75Y-62.25
X154.25Y-54.25
X154.75Y-85.25
X155.25Y-69.75
X155.365Y-59.115
X156.15Y-83.75
X156.25Y-63.25
X157.5Y-56.5
X159.497Y-66.501
X159.6Y-64.75
X159.75Y-84.0
X160.0Y-61.25
X160.15Y-65.5
X162.49Y-83.575
X163.5Y-82.75
X163.558Y-53.942
X163.85Y-84.9
X164.25Y-64.5
X164.827Y-57.078
X165.951Y-76.951
X166.0Y-72.25
X166.097Y-57.152
X166.5Y-73.15
X166.5Y-75.35
X167.25Y-81.25
X167.367Y-53.867
X167.367Y-60.383
X167.75Y-78.85
X168.35Y-77.75
X168.5Y-82.75
X168.5Y-83.75
X168.5Y-84.75
X168.5Y-86.75
X168.5Y-87.5
X169.0Y-75.35
X169.558Y-53.942
X170.0Y-76.6
X170.0Y-78.0
X170.5Y-71.75
X170.827Y-57.078
X172.097Y-57.152
X172.75Y-81.5
X173.367Y-53.867
X173.367Y-60.383
X173.5Y-88.75
X173.5Y-90.0
X174.25Y-84.75
X174.75Y-47.917
X175.25Y-77.0
X175.558Y-53.942
X176.25Y-47.917
X176.827Y-57.078
X177.75Y-47.917
X178.097Y-57.152
X178.25Y-72.0
X178.5Y-95.0
X179.25Y-47.917
X179.367Y-53.867
X179.367Y-60.133
X179.75Y-49.9
X180.25Y-47.917
X181.558Y-53.942
X181.75Y-48.0
X182.827Y-57.078
X184.097Y-57.152
X185.367Y-53.867
X185.367Y-60.133
X185.95Y-51.0
X190.0Y-51.0
X192.6Y-62.85
X194.5Y-62.75
T2
X38.0Y-101.0
X38.0Y-102.0
X38.0Y-103.0
X38.0Y-104.0
X38.0Y-105.0
X38.0Y-108.0
X38.0Y-109.0
X38.0Y-110.0
X38.0Y-111.0
X38.0Y-112.0
X38.0Y-113.0
X38.0Y-114.0
X38.0Y-115.0
X38.0Y-116.0
X38.0Y-117.0
X38.0Y-118.0
X38.0Y-119.0
X38.0Y-120.0
X38.0Y-121.0
X38.5Y-64.0
X39.0Y-63.0
X39.0Y-100.5
X39.0Y-101.5
X39.0Y-102.5
X39.0Y-103.5
X39.0Y-104.5
X39.0Y-105.5
X39.0Y-108.5
X39.0Y-109.5
X39.0Y-110.5
X39.0Y-111.5
X39.0Y-112.5
X39.0Y-113.5
X39.0Y-114.5
X39.0Y-115.5
X39.0Y-116.5
X39.0Y-117.5
X39.0Y-118.5
X39.0Y-119.5
X39.0Y-120.5
X39.0Y-121.5
X39.5Y-64.0
X40.0Y-63.0
X40.0Y-101.0
X40.0Y-102.0
X40.0Y-103.0
X40.0Y-104.0
X40.0Y-105.0
X40.0Y-128.5
X40.5Y-64.0
X41.0Y-63.0
X41.0Y-100.5
X41.0Y-101.5
X41.0Y-102.5
X41.0Y-103.5
X41.0Y-104.5
X41.0Y-105.5
X41.5Y-64.0
X42.0Y-63.0
X42.0Y-85.0
X42.0Y-101.0
X42.5Y-64.0
X43.0Y-63.0
X43.5Y-64.0
X44.0Y-63.0
X47.0Y-100.5
X47.0Y-101.5
X47.0Y-102.5
X47.0Y-103.5
X47.0Y-104.5
X47.0Y-105.5
X47.275Y-84.725
X47.35Y-67.35
X48.0Y-101.0
X48.0Y-102.0
X48.0Y-103.0
X48.0Y-104.0
X48.0Y-105.0
X48.0Y-106.0
X49.0Y-100.5
X49.0Y-101.5
X49.0Y-105.5
X49.0Y-106.5
X49.5Y-89.5
X49.5Y-90.5
X49.5Y-91.5
X49.5Y-92.5
X49.5Y-93.5
X49.5Y-94.5
X49.5Y-95.5
X49.5Y-96.5
X49.5Y-97.5
X49.5Y-98.5
X50.0Y-71.5
X50.0Y-72.5
X50.0Y-73.5
X50.0Y-74.5
X50.0Y-75.5
X50.0Y-76.5
X50.0Y-77.5
X50.0Y-101.0
X50.0Y-106.0
X50.5Y-90.0
X50.5Y-91.0
X50.5Y-92.0
X50.5Y-93.0
X50.5Y-94.0
X50.5Y-95.0
X50.5Y-96.0
X50.5Y-97.0
X50.5Y-98.0
X51.0Y-72.0
X51.0Y-73.0
X51.0Y-74.0
X51.0Y-75.0
X51.0Y-76.0
X51.0Y-77.0
X51.0Y-78.0
X51.0Y-100.5
X51.0Y-101.5
X51.0Y-105.5
X51.0Y-106.5
X52.0Y-71.5
X52.0Y-72.5
X52.0Y-73.5
X52.0Y-74.5
X52.0Y-75.5
X52.0Y-76.5
X52.0Y-77.5
X52.0Y-101.0
X52.0Y-106.0
X53.0Y-72.0
X53.0Y-73.0
X53.0Y-74.0
X53.0Y-75.0
X53.0Y-76.0
X53.0Y-77.0
X53.0Y-78.0
X53.5Y-104.0
X53.5Y-105.0
X53.5Y-106.0
X53.5Y-107.0
X53.5Y-108.0
X53.5Y-109.0
X53.5Y-110.0
X53.5Y-111.0
X53.5Y-112.0
X53.5Y-113.0
X53.5Y-114.0
X53.5Y-115.0
X54.0Y-71.5
X54.0Y-72.5
X54.0Y-73.5
X54.0Y-74.5
X54.0Y-75.5
X54.0Y-76.5
X54.0Y-77.5
X54.5Y-104.5
X54.5Y-105.5
X54.5Y-106.5
X54.5Y-107.5
X54.5Y-108.5
X54.5Y-109.5
X54.5Y-110.5
X54.5Y-111.5
X54.5Y-112.5
X54.5Y-113.5
X54.5Y-114.5
X54.5Y-115.5
X55.0Y-72.0
X55.0Y-73.0
X55.0Y-74.0
X55.0Y-75.0
X55.0Y-76.0
X55.0Y-77.0
X55.0Y-78.0
X55.0Y-79.0
X58.5Y-72.0
X58.5Y-73.0
X58.5Y-74.0
X58.5Y-75.0
X58.5Y-76.0
X58.5Y-77.0
X58.5Y-78.0
X58.5Y-79.0
X59.5Y-71.5
X59.5Y-72.5
X59.5Y-73.5
X59.5Y-74.5
X59.5Y-75.5
X59.5Y-76.5
X59.5Y-77.5
X59.5Y-130.5
X60.0Y-131.5
X60.5Y-72.0
X60.5Y-73.0
X60.5Y-74.0
X60.5Y-75.0
X60.5Y-76.0
X60.5Y-77.0
X60.5Y-78.0
X60.5Y-130.5
X61.0Y-131.5
X61.5Y-71.5
X61.5Y-72.5
X61.5Y-73.5
X61.5Y-74.5
X61.5Y-75.5
X61.5Y-76.5
X61.5Y-77.5
X61.5Y-130.5
X62.0Y-131.5
X62.5Y-72.0
X62.5Y-73.0
X62.5Y-74.0
X62.5Y-75.0
X62.5Y-76.0
X62.5Y-77.0
X62.5Y-78.0
X62.5Y-130.5
X63.5Y-64.0
X63.5Y-71.5
X63.5Y-72.5
X63.5Y-73.5
X63.5Y-74.5
X63.5Y-75.5
X63.5Y-76.5
X63.5Y-77.5
X63.5Y-78.5
X64.0Y-63.0
X64.5Y-64.0
X65.0Y-63.0
X65.5Y-64.0
X66.0Y-63.0
X66.5Y-64.0
X67.0Y-63.0
X67.5Y-64.0
X68.0Y-63.0
X68.0Y-67.5
X68.0Y-103.5
X68.5Y-64.0
X69.0Y-63.0
X73.35Y-84.85
X73.475Y-67.475
X82.5Y-63.5
X82.5Y-64.5
X82.5Y-65.5
X82.5Y-66.5
X83.0Y-64.0
X83.0Y-65.0
X83.0Y-66.0
X83.5Y-64.5
X83.5Y-65.5
X83.5Y-66.5
X84.0Y-64.0
X84.0Y-65.0
X84.0Y-66.0
X90.0Y-87.5
X92.5Y-93.0
X93.0Y-64.0
X93.0Y-65.0
X93.0Y-66.0
X93.5Y-64.5
X93.5Y-65.5
X94.0Y-64.0
X94.0Y-65.0
X94.0Y-66.0
X94.5Y-63.5
X94.5Y-64.5
X94.5Y-65.5
X94.5Y-68.0
X95.0Y-64.0
X95.0Y-65.0
X95.5Y-63.5
X95.5Y-64.5
X98.5Y-88.5
X100.825Y-77.175
X100.825Y-79.175
X103.0Y-72.675
X106.5Y-68.0
X206.5Y-112.0
X209.0Y-116.0
X213.0Y-116.0
T3
X91.2Y-74.225
X91.2Y-76.005
X91.2Y-77.785
X91.2Y-79.565
X91.2Y-81.345
X91.2Y-83.125
X92.5Y-74.225
X92.5Y-76.005
X92.5Y-77.785
X92.5Y-79.565
X92.5Y-81.345
X92.5Y-83.125
X93.8Y-74.225
X93.8Y-76.005
X93.8Y-77.785
X93.8Y-79.565
X93.8Y-81.345
X93.8Y-83.125
T4
X59.0Y-102.5
X59.5Y-90.0
X59.5Y-101.5
X60.0Y-91.0
X60.0Y-100.5
X60.0Y-102.5
X60.5Y-90.0
X60.5Y-99.5
X60.5Y-101.5
X61.0Y-91.0
X61.0Y-98.5
X61.0Y-100.5
X61.0Y-102.5
X61.5Y-90.0
X61.5Y-97.5
X61.5Y-99.5
X61.5Y-101.5
X62.0Y-91.0
X62.0Y-94.5
X62.0Y-96.5
X62.0Y-98.5
X62.0Y-100.5
X62.0Y-102.5
X62.5Y-90.0
X62.5Y-95.5
X62.5Y-97.5
X62.5Y-99.5
X62.5Y-101.5
X63.0Y-91.0
X63.0Y-94.5
X63.0Y-96.5
X63.0Y-98.5
X63.0Y-100.5
X63.0Y-102.5
X63.5Y-90.0
X63.5Y-99.5
X63.5Y-101.5
X64.0Y-100.5
X64.5Y-99.5
X64.5Y-101.5
X65.0Y-100.5
X65.5Y-99.5
X65.5Y-101.5
X66.0Y-100.5
X66.5Y-99.5
X66.5Y-101.5
X67.0Y-100.5
X67.5Y-99.5
X67.5Y-101.5
X68.0Y-85.0
X68.0Y-100.5
X68.5Y-99.5
X68.5Y-101.5
X69.0Y-100.5
X69.5Y-99.5
X69.5Y-101.5
X70.0Y-100.5
X70.0Y-105.5
X70.0Y-111.5
X70.0Y-112.5
X70.5Y-99.5
X70.5Y-101.5
X71.0Y-100.5
X71.0Y-103.5
X71.0Y-105.5
X71.0Y-111.5
X71.0Y-112.5
X71.0Y-113.5
X71.5Y-99.5
X72.0Y-100.5
X72.0Y-105.5
X72.0Y-106.5
X72.0Y-110.5
X72.0Y-111.5
X72.0Y-112.5
X72.0Y-113.5
X72.5Y-99.5
X73.0Y-105.5
X73.0Y-106.5
X73.0Y-113.5
X74.0Y-105.5
X74.0Y-106.5
X74.0Y-113.5
X75.0Y-113.5
X75.5Y-90.0
X76.0Y-94.5
X76.0Y-95.5
X76.0Y-96.5
X76.0Y-97.5
X76.0Y-98.5
X76.0Y-113.5
X76.5Y-90.0
X77.0Y-47.0
X77.0Y-113.5
X78.5Y-103.5
X78.5Y-106.5
X78.5Y-111.0
X87.0Y-90.5
X87.0Y-91.5
X89.0Y-103.5
X90.0Y-105.5
X90.0Y-111.5
X90.0Y-112.5
X91.0Y-103.5
X91.0Y-105.5
X91.0Y-111.5
X91.0Y-112.5
X92.0Y-105.5
X92.0Y-106.5
X92.0Y-110.5
X92.0Y-111.5
X92.0Y-112.5
X93.0Y-105.5
X93.0Y-106.5
X94.0Y-105.5
X94.0Y-106.5
X98.5Y-103.5
X98.5Y-106.5
X98.5Y-111.0
X107.0Y-90.5
X107.0Y-91.5
X112.0Y-89.0
X112.5Y-90.5
X113.0Y-91.5
X113.991Y-88.052
X114.0Y-96.5
X115.0Y-83.5
X115.5Y-93.462
X116.0Y-80.0
X116.85Y-94.15
X118.0Y-80.0
X118.026Y-83.973
X118.5Y-92.5
X118.725Y-110.058
X119.0Y-88.2
X119.0Y-93.5
X119.0Y-104.0
X119.25Y-84.0
X120.0Y-87.0
X120.0Y-89.5
X120.5Y-116.5
X121.05Y-83.55
X122.0Y-86.15
X123.0Y-109.5
X124.825Y-94.175
X125.0Y-88.5
X125.0Y-92.5
X125.0Y-104.0
X125.85Y-87.15
X127.0Y-93.0
X128.95Y-92.95
X136.5Y-80.0
X137.0Y-105.0
X137.0Y-111.0
X137.5Y-88.0
X137.5Y-94.0
X138.5Y-80.0
X138.5Y-89.5
X138.5Y-91.5
X139.5Y-88.0
X139.675Y-104.825
X140.0Y-93.0
X142.5Y-84.0
X142.5Y-86.15
X145.0Y-94.0
X145.0Y-107.0
X145.0Y-109.0
X145.325Y-104.825
X145.5Y-116.0
X146.35Y-87.25
X146.5Y-89.5
X146.5Y-91.5
X153.0Y-109.0
X153.0Y-112.8
X158.0Y-75.5
X158.0Y-76.5
X158.0Y-77.5
X159.0Y-75.5
X159.0Y-76.5
X159.0Y-77.5
X160.0Y-75.5
X160.0Y-76.5
X160.0Y-77.5
X167.5Y-109.0
X167.5Y-116.0
X176.918Y-108.7
X177.0Y-116.5
X177.25Y-113.25
X178.004Y-105.0
X178.5Y-99.0
X179.0Y-112.9
X179.0Y-116.0
X180.02Y-108.478
X180.293Y-107.516
X180.5Y-99.0
X181.0Y-114.0
X183.0Y-47.0
X184.5Y-108.5
X184.5Y-110.5
X184.5Y-112.5
X190.0Y-110.5
X191.0Y-107.5
X191.0Y-109.5
X192.0Y-114.0
X193.0Y-112.5
X193.5Y-99.0
X194.0Y-114.0
X194.5Y-98.0
X195.275Y-108.5
X195.3Y-106.958
X195.5Y-99.0
X196.0Y-114.0
X199.5Y-108.5
X199.5Y-110.5
X199.5Y-112.5
X200.0Y-74.0
X200.0Y-80.0
X200.0Y-84.0
X200.0Y-85.0
X200.0Y-86.0
X200.0Y-92.0
X200.0Y-94.5
X201.0Y-74.0
X201.0Y-80.0
X201.0Y-84.0
X201.0Y-85.0
X201.0Y-86.0
X201.0Y-92.0
X201.25Y-69.0
X202.0Y-74.0
X202.0Y-80.0
X202.0Y-86.0
X202.0Y-92.0
X203.0Y-74.0
X203.0Y-75.0
X203.0Y-76.0
X203.0Y-77.0
X203.0Y-78.0
X203.0Y-79.0
X203.0Y-80.0
X203.0Y-86.0
X203.0Y-87.0
X203.0Y-88.0
X203.0Y-89.0
X203.0Y-90.0
X203.0Y-91.0
X203.0Y-92.0
X204.0Y-74.0
X204.0Y-75.0
X204.0Y-76.0
X204.0Y-77.0
X204.0Y-78.0
X204.0Y-79.0
X204.0Y-80.0
X204.0Y-84.0
X204.0Y-85.0
X204.0Y-86.0
X204.0Y-87.0
X204.0Y-88.0
X204.0Y-89.0
X204.0Y-90.0
X204.0Y-91.0
X204.0Y-92.0
X205.0Y-74.0
X205.0Y-75.0
X205.0Y-76.0
X205.0Y-77.0
X205.0Y-78.0
X205.0Y-79.0
X205.0Y-80.0
X205.0Y-86.0
X205.0Y-87.0
X205.0Y-88.0
X205.0Y-89.0
X205.0Y-90.0
X205.0Y-91.0
X205.0Y-92.0
X206.0Y-69.0
X206.0Y-94.5
X206.5Y-72.0
X207.0Y-83.0
X207.0Y-84.25
X207.75Y-97.5
X207.75Y-98.5
X207.75Y-99.5
X208.0Y-113.5
X208.75Y-74.25
X208.75Y-75.25
X208.75Y-78.75
X208.75Y-79.75
X208.75Y-80.75
X208.75Y-90.75
X208.75Y-91.75
X208.75Y-92.75
X209.0Y-113.5
X210.0Y-113.5
X211.0Y-113.5
X212.0Y-113.5
X213.0Y-113.5
T5
X59.153Y-110.0
X62.653Y-110.0
T6
X54.132Y-96.0
X59.132Y-96.0
X85.5Y-93.61
X85.5Y-96.15
X85.5Y-98.69
X85.5Y-103.77
X85.5Y-106.31
X85.5Y-108.85
X85.5Y-111.39
X105.5Y-93.61
X105.5Y-96.15
X105.5Y-98.69
X105.5Y-103.77
X105.5Y-106.31
X105.5Y-108.85
X105.5Y-111.39
X152.19Y-95.69
X152.19Y-103.31
X154.73Y-95.69
X154.73Y-103.31
X157.27Y-95.69
X157.27Y-103.31
X159.81Y-95.69
X166.19Y-95.69
X166.19Y-103.31
X168.73Y-95.69
X168.73Y-103.31
X171.27Y-95.69
X171.27Y-103.31
X173.81Y-95.69
X180.5Y-68.21
X180.5Y-70.75
X180.5Y-73.29
X180.5Y-75.83
X201.475Y-59.725
X201.475Y-62.265
X204.015Y-59.725
X204.015Y-62.265
T7
X72.34Y-117.34
X72.34Y-124.96
X72.34Y-130.04
X92.66Y-117.34
X92.66Y-127.5
X92.66Y-137.66
T8
X48.3Y-121.0
X48.3Y-126.5
X52.5Y-121.0
X52.5Y-126.5
X111.5Y-121.0
X111.5Y-126.5
X118.0Y-121.0
X118.0Y-126.5
X125.0Y-121.0
X125.0Y-126.5
X132.3Y-121.0
X132.3Y-126.5
X136.5Y-121.0
X136.5Y-126.5
X143.4Y-121.0
X143.4Y-126.5
X147.6Y-121.0
X147.6Y-126.5
X154.4Y-121.0
X154.4Y-126.5
X158.6Y-121.0
X158.6Y-126.5
X165.4Y-121.0
X165.4Y-126.5
X169.6Y-121.0
X169.6Y-126.5
X177.6Y-121.0
X177.6Y-126.5
X181.8Y-121.0
X181.8Y-126.5
X186.0Y-121.0
X186.0Y-126.5
X193.1Y-121.0
X193.1Y-126.5
X197.3Y-121.0
X197.3Y-126.5
X201.5Y-121.0
X201.5Y-126.5
M30
