%TF.GenerationSoftware,KiCad,Pcbnew,10.0.1*%
%TF.CreationDate,2026-07-04T16:24:46+03:00*%
%TF.ProjectId,PSFB_MCU,50534642-5f4d-4435-952e-6b696361645f,rev?*%
%TF.SameCoordinates,Original*%
%TF.FileFunction,Soldermask,Top*%
%TF.FilePolarity,Negative*%
%FSLAX46Y46*%
G04 Gerber Fmt 4.6, Leading zero omitted, Abs format (unit mm)*
G04 Created by KiCad (PCBNEW 10.0.1) date 2026-07-04 16:24:46*
%MOMM*%
%LPD*%
G01*
G04 APERTURE LIST*
G04 Aperture macros list*
%AMRoundRect*
0 Rectangle with rounded corners*
0 $1 Rounding radius*
0 $2 $3 $4 $5 $6 $7 $8 $9 X,Y pos of 4 corners*
0 Add a 4 corners polygon primitive as box body*
4,1,4,$2,$3,$4,$5,$6,$7,$8,$9,$2,$3,0*
0 Add four circle primitives for the rounded corners*
1,1,$1+$1,$2,$3*
1,1,$1+$1,$4,$5*
1,1,$1+$1,$6,$7*
1,1,$1+$1,$8,$9*
0 Add four rect primitives between the rounded corners*
20,1,$1+$1,$2,$3,$4,$5,0*
20,1,$1+$1,$4,$5,$6,$7,0*
20,1,$1+$1,$6,$7,$8,$9,0*
20,1,$1+$1,$8,$9,$2,$3,0*%
G04 Aperture macros list end*
%ADD10C,3.000000*%
%ADD11O,2.300000X1.600000*%
%ADD12O,1.500000X2.200000*%
%ADD13RoundRect,0.243750X0.243750X0.456250X-0.243750X0.456250X-0.243750X-0.456250X0.243750X-0.456250X0*%
%ADD14RoundRect,0.250000X0.350000X0.450000X-0.350000X0.450000X-0.350000X-0.450000X0.350000X-0.450000X0*%
%ADD15RoundRect,0.250001X-0.624999X0.462499X-0.624999X-0.462499X0.624999X-0.462499X0.624999X0.462499X0*%
%ADD16RoundRect,0.250000X0.625000X-0.400000X0.625000X0.400000X-0.625000X0.400000X-0.625000X-0.400000X0*%
%ADD17RoundRect,0.150000X0.150000X-0.750000X0.150000X0.750000X-0.150000X0.750000X-0.150000X-0.750000X0*%
%ADD18RoundRect,0.250000X0.450000X-0.350000X0.450000X0.350000X-0.450000X0.350000X-0.450000X-0.350000X0*%
%ADD19RoundRect,0.250001X0.624999X-0.462499X0.624999X0.462499X-0.624999X0.462499X-0.624999X-0.462499X0*%
%ADD20RoundRect,0.250000X-0.450000X0.350000X-0.450000X-0.350000X0.450000X-0.350000X0.450000X0.350000X0*%
%ADD21RoundRect,0.150000X0.150000X-0.512500X0.150000X0.512500X-0.150000X0.512500X-0.150000X-0.512500X0*%
%ADD22RoundRect,0.250000X0.337500X0.475000X-0.337500X0.475000X-0.337500X-0.475000X0.337500X-0.475000X0*%
%ADD23RoundRect,0.150000X0.587500X0.150000X-0.587500X0.150000X-0.587500X-0.150000X0.587500X-0.150000X0*%
%ADD24RoundRect,0.250000X-0.275000X-0.350000X0.275000X-0.350000X0.275000X0.350000X-0.275000X0.350000X0*%
%ADD25RoundRect,0.250000X0.550000X0.550000X-0.550000X0.550000X-0.550000X-0.550000X0.550000X-0.550000X0*%
%ADD26C,1.600000*%
%ADD27RoundRect,0.250000X-0.300000X2.050000X-0.300000X-2.050000X0.300000X-2.050000X0.300000X2.050000X0*%
%ADD28RoundRect,0.250002X-5.149998X4.449998X-5.149998X-4.449998X5.149998X-4.449998X5.149998X4.449998X0*%
%ADD29RoundRect,0.250000X-0.350000X-0.450000X0.350000X-0.450000X0.350000X0.450000X-0.350000X0.450000X0*%
%ADD30RoundRect,0.250000X-0.475000X0.337500X-0.475000X-0.337500X0.475000X-0.337500X0.475000X0.337500X0*%
%ADD31RoundRect,0.150000X-0.512500X-0.150000X0.512500X-0.150000X0.512500X0.150000X-0.512500X0.150000X0*%
%ADD32RoundRect,0.243750X-0.456250X0.243750X-0.456250X-0.243750X0.456250X-0.243750X0.456250X0.243750X0*%
%ADD33C,4.300000*%
%ADD34RoundRect,0.250001X1.099999X1.599999X-1.099999X1.599999X-1.099999X-1.599999X1.099999X-1.599999X0*%
%ADD35O,2.700000X3.700000*%
%ADD36RoundRect,0.250000X0.650000X-1.500000X0.650000X1.500000X-0.650000X1.500000X-0.650000X-1.500000X0*%
%ADD37RoundRect,0.250000X0.650000X-0.412500X0.650000X0.412500X-0.650000X0.412500X-0.650000X-0.412500X0*%
%ADD38RoundRect,0.150000X0.150000X-0.725000X0.150000X0.725000X-0.150000X0.725000X-0.150000X-0.725000X0*%
%ADD39RoundRect,0.250000X0.475000X-0.337500X0.475000X0.337500X-0.475000X0.337500X-0.475000X-0.337500X0*%
%ADD40RoundRect,0.375000X0.625000X0.375000X-0.625000X0.375000X-0.625000X-0.375000X0.625000X-0.375000X0*%
%ADD41RoundRect,0.500000X0.500000X1.400000X-0.500000X1.400000X-0.500000X-1.400000X0.500000X-1.400000X0*%
%ADD42RoundRect,0.250000X-0.337500X-0.475000X0.337500X-0.475000X0.337500X0.475000X-0.337500X0.475000X0*%
%ADD43RoundRect,0.250000X-0.900000X1.000000X-0.900000X-1.000000X0.900000X-1.000000X0.900000X1.000000X0*%
%ADD44RoundRect,0.250000X-0.400000X-0.625000X0.400000X-0.625000X0.400000X0.625000X-0.400000X0.625000X0*%
%ADD45RoundRect,0.250000X0.900000X-1.000000X0.900000X1.000000X-0.900000X1.000000X-0.900000X-1.000000X0*%
%ADD46RoundRect,0.100000X0.300000X0.100000X-0.300000X0.100000X-0.300000X-0.100000X0.300000X-0.100000X0*%
%ADD47R,0.300000X1.300000*%
%ADD48R,1.800000X2.200000*%
%ADD49RoundRect,0.250000X0.412500X0.650000X-0.412500X0.650000X-0.412500X-0.650000X0.412500X-0.650000X0*%
%ADD50RoundRect,0.250000X1.500000X0.650000X-1.500000X0.650000X-1.500000X-0.650000X1.500000X-0.650000X0*%
%ADD51RoundRect,0.249999X0.450001X1.425001X-0.450001X1.425001X-0.450001X-1.425001X0.450001X-1.425001X0*%
%ADD52RoundRect,0.243750X-0.243750X-0.456250X0.243750X-0.456250X0.243750X0.456250X-0.243750X0.456250X0*%
%ADD53RoundRect,0.150000X-0.150000X0.587500X-0.150000X-0.587500X0.150000X-0.587500X0.150000X0.587500X0*%
%ADD54RoundRect,0.250001X-1.474999X-2.249999X1.474999X-2.249999X1.474999X2.249999X-1.474999X2.249999X0*%
%ADD55RoundRect,0.250000X1.000000X-1.400000X1.000000X1.400000X-1.000000X1.400000X-1.000000X-1.400000X0*%
%ADD56R,1.700000X1.700000*%
%ADD57C,1.700000*%
%ADD58RoundRect,0.250000X-0.250000X-0.250000X0.250000X-0.250000X0.250000X0.250000X-0.250000X0.250000X0*%
%ADD59R,1.100000X0.400000*%
%ADD60R,3.400000X9.500000*%
%ADD61R,1.000000X2.400000*%
%ADD62RoundRect,0.250000X0.350000X-0.450000X0.350000X0.450000X-0.350000X0.450000X-0.350000X-0.450000X0*%
%ADD63RoundRect,0.075000X-0.700000X-0.075000X0.700000X-0.075000X0.700000X0.075000X-0.700000X0.075000X0*%
%ADD64RoundRect,0.075000X-0.075000X-0.700000X0.075000X-0.700000X0.075000X0.700000X-0.075000X0.700000X0*%
%ADD65RoundRect,0.150000X-0.150000X0.825000X-0.150000X-0.825000X0.150000X-0.825000X0.150000X0.825000X0*%
%ADD66RoundRect,0.250000X-0.750000X-0.750000X0.750000X-0.750000X0.750000X0.750000X-0.750000X0.750000X0*%
%ADD67C,2.000000*%
%ADD68RoundRect,0.150000X0.150000X-0.587500X0.150000X0.587500X-0.150000X0.587500X-0.150000X-0.587500X0*%
%TA.AperFunction,Profile*%
%ADD69C,0.050000*%
%TD*%
G04 APERTURE END LIST*
D10*
%TO.C,D18*%
X72340000Y-117340000D03*
X72340000Y-124960000D03*
X72340000Y-130040000D03*
X92660000Y-137660000D03*
X92660000Y-127500000D03*
X92660000Y-117340000D03*
%TD*%
D11*
%TO.C,D40*%
X85500000Y-93610000D03*
X85500000Y-96150000D03*
X85500000Y-98690000D03*
X85500000Y-103770000D03*
X85500000Y-106310000D03*
X85500000Y-108850000D03*
X85500000Y-111390000D03*
%TD*%
%TO.C,D33*%
X105500000Y-93610000D03*
X105500000Y-96150000D03*
X105500000Y-98690000D03*
X105500000Y-103770000D03*
X105500000Y-106310000D03*
X105500000Y-108850000D03*
X105500000Y-111390000D03*
%TD*%
D12*
%TO.C,D1*%
X173810000Y-95690000D03*
X171270000Y-95690000D03*
X168730000Y-95690000D03*
X166190000Y-95690000D03*
X166190000Y-103310000D03*
X168730000Y-103310000D03*
X171270000Y-103310000D03*
%TD*%
%TO.C,D4*%
X159810000Y-95690000D03*
X157270000Y-95690000D03*
X154730000Y-95690000D03*
X152190000Y-95690000D03*
X152190000Y-103310000D03*
X154730000Y-103310000D03*
X157270000Y-103310000D03*
%TD*%
D13*
%TO.C,D23*%
X65062500Y-103500000D03*
X66937500Y-103500000D03*
%TD*%
D14*
%TO.C,R87*%
X119500000Y-109000000D03*
X121500000Y-109000000D03*
%TD*%
D15*
%TO.C,D45*%
X117000000Y-109987500D03*
X117000000Y-107012500D03*
%TD*%
D16*
%TO.C,R86*%
X114500000Y-111950000D03*
X114500000Y-115050000D03*
%TD*%
D17*
%TO.C,D43*%
X120095000Y-94175000D03*
X121365000Y-94175000D03*
X122635000Y-94175000D03*
X123905000Y-94175000D03*
X123905000Y-104825000D03*
X122635000Y-104825000D03*
X121365000Y-104825000D03*
X120095000Y-104825000D03*
%TD*%
D18*
%TO.C,R84*%
X119000000Y-89500000D03*
X119000000Y-91500000D03*
%TD*%
%TO.C,R91*%
X123000000Y-89500000D03*
X123000000Y-91500000D03*
%TD*%
D19*
%TO.C,D44*%
X114500000Y-107012500D03*
X114500000Y-109987500D03*
%TD*%
D20*
%TO.C,R92*%
X125000000Y-91500000D03*
X125000000Y-89500000D03*
%TD*%
D21*
%TO.C,U21*%
X121050000Y-84862500D03*
X122950000Y-84862500D03*
X122950000Y-87137500D03*
X122000000Y-87137500D03*
X121050000Y-87137500D03*
%TD*%
D18*
%TO.C,R88*%
X121000000Y-89500000D03*
X121000000Y-91500000D03*
%TD*%
D22*
%TO.C,C98*%
X119462500Y-107000000D03*
X121537500Y-107000000D03*
%TD*%
D23*
%TO.C,D41*%
X123562500Y-108000000D03*
X125437500Y-107050000D03*
X125437500Y-108950000D03*
%TD*%
D24*
%TO.C,FB6*%
X191850000Y-107500000D03*
X194150000Y-107500000D03*
%TD*%
%TO.C,FB5*%
X176850000Y-107500000D03*
X179150000Y-107500000D03*
%TD*%
%TO.C,FB4*%
X112850000Y-89000000D03*
X115150000Y-89000000D03*
%TD*%
D25*
%TO.C,C42*%
X62652651Y-110000000D03*
D26*
X59152651Y-110000000D03*
%TD*%
D14*
%TO.C,R31*%
X97500000Y-68000000D03*
X95500000Y-68000000D03*
%TD*%
D27*
%TO.C,Q4*%
X72040000Y-67475000D03*
D28*
X69500000Y-76625000D03*
D27*
X66960000Y-67475000D03*
%TD*%
D18*
%TO.C,R38*%
X95500000Y-72675000D03*
X95500000Y-70675000D03*
%TD*%
D29*
%TO.C,R8*%
X150000000Y-110000000D03*
X152000000Y-110000000D03*
%TD*%
D30*
%TO.C,C99*%
X117000000Y-84962500D03*
X117000000Y-87037500D03*
%TD*%
D31*
%TO.C,U2*%
X171225000Y-70800000D03*
X171225000Y-71750000D03*
X171225000Y-72700000D03*
X173500000Y-72700000D03*
X173500000Y-71750000D03*
X173500000Y-70800000D03*
%TD*%
D22*
%TO.C,C83*%
X142037500Y-107000000D03*
X139962500Y-107000000D03*
%TD*%
D13*
%TO.C,D19*%
X204937500Y-94500000D03*
X203062500Y-94500000D03*
%TD*%
D29*
%TO.C,R64*%
X187000000Y-51000000D03*
X189000000Y-51000000D03*
%TD*%
D32*
%TO.C,D6*%
X151040000Y-62812500D03*
X151040000Y-64687500D03*
%TD*%
D20*
%TO.C,R27*%
X98500000Y-85675000D03*
X98500000Y-87675000D03*
%TD*%
D33*
%TO.C,H2*%
X40500000Y-136500000D03*
%TD*%
D10*
%TO.C,J9*%
X201500000Y-133800000D03*
X193100000Y-133800000D03*
D34*
X201500000Y-126500000D03*
D35*
X197300000Y-126500000D03*
X193100000Y-126500000D03*
X201500000Y-121000000D03*
X197300000Y-121000000D03*
X193100000Y-121000000D03*
%TD*%
D30*
%TO.C,C28*%
X179000000Y-109472500D03*
X179000000Y-111547500D03*
%TD*%
D17*
%TO.C,D38*%
X140595000Y-104825000D03*
X141865000Y-104825000D03*
X143135000Y-104825000D03*
X144405000Y-104825000D03*
X144405000Y-94175000D03*
X143135000Y-94175000D03*
X141865000Y-94175000D03*
X140595000Y-94175000D03*
%TD*%
D29*
%TO.C,R5*%
X175500000Y-73250000D03*
X177500000Y-73250000D03*
%TD*%
D27*
%TO.C,Q2*%
X72040000Y-84850000D03*
D28*
X69500000Y-94000000D03*
D27*
X66960000Y-84850000D03*
%TD*%
D30*
%TO.C,C31*%
X192000000Y-109462500D03*
X192000000Y-111537500D03*
%TD*%
D18*
%TO.C,R78*%
X143500000Y-91500000D03*
X143500000Y-89500000D03*
%TD*%
D36*
%TO.C,D11*%
X104000000Y-85000000D03*
X104000000Y-80000000D03*
%TD*%
D29*
%TO.C,R1*%
X168500000Y-110000000D03*
X170500000Y-110000000D03*
%TD*%
D33*
%TO.C,H3*%
X210500000Y-46500000D03*
%TD*%
D10*
%TO.C,J12*%
X145500000Y-133800000D03*
D34*
X147600000Y-126500000D03*
D35*
X143400000Y-126500000D03*
X147600000Y-121000000D03*
X143400000Y-121000000D03*
%TD*%
D18*
%TO.C,R90*%
X119000000Y-87000000D03*
X119000000Y-85000000D03*
%TD*%
D29*
%TO.C,R6*%
X175500000Y-70750000D03*
X177500000Y-70750000D03*
%TD*%
D37*
%TO.C,C55*%
X210500000Y-78562500D03*
X210500000Y-75437500D03*
%TD*%
D38*
%TO.C,D25*%
X75557500Y-58075000D03*
X76827500Y-58075000D03*
X78097500Y-58075000D03*
X79367500Y-58075000D03*
X79367500Y-52925000D03*
X78097500Y-52925000D03*
X76827500Y-52925000D03*
X75557500Y-52925000D03*
%TD*%
D39*
%TO.C,C23*%
X113000000Y-87037500D03*
X113000000Y-84962500D03*
%TD*%
D38*
%TO.C,D24*%
X69557500Y-58075000D03*
X70827500Y-58075000D03*
X72097500Y-58075000D03*
X73367500Y-58075000D03*
X73367500Y-52925000D03*
X72097500Y-52925000D03*
X70827500Y-52925000D03*
X69557500Y-52925000D03*
%TD*%
D40*
%TO.C,U20*%
X76399990Y-110800010D03*
X76399990Y-108500010D03*
D41*
X70099990Y-108500010D03*
D40*
X76399990Y-106200010D03*
%TD*%
D38*
%TO.C,D31*%
X169557500Y-58075000D03*
X170827500Y-58075000D03*
X172097500Y-58075000D03*
X173367500Y-58075000D03*
X173367500Y-52925000D03*
X172097500Y-52925000D03*
X170827500Y-52925000D03*
X169557500Y-52925000D03*
%TD*%
D42*
%TO.C,C44*%
X97925000Y-75000000D03*
X100000000Y-75000000D03*
%TD*%
D14*
%TO.C,R33*%
X101500000Y-68000000D03*
X99500000Y-68000000D03*
%TD*%
D21*
%TO.C,U19*%
X141550000Y-87137500D03*
X142500000Y-87137500D03*
X143450000Y-87137500D03*
X143450000Y-84862500D03*
X141550000Y-84862500D03*
%TD*%
D27*
%TO.C,Q3*%
X46040000Y-67350000D03*
D28*
X43500000Y-76500000D03*
D27*
X40960000Y-67350000D03*
%TD*%
D19*
%TO.C,D37*%
X137000000Y-109987500D03*
X137000000Y-107012500D03*
%TD*%
D43*
%TO.C,D12*%
X42000000Y-120350000D03*
X42000000Y-124650000D03*
%TD*%
D44*
%TO.C,R21*%
X90950000Y-87500000D03*
X94050000Y-87500000D03*
%TD*%
D39*
%TO.C,C24*%
X115000000Y-87037500D03*
X115000000Y-84962500D03*
%TD*%
D18*
%TO.C,R16*%
X181000000Y-111500000D03*
X181000000Y-109500000D03*
%TD*%
D45*
%TO.C,D13*%
X92500000Y-94650000D03*
X92500000Y-90350000D03*
%TD*%
D13*
%TO.C,D21*%
X204937500Y-69000000D03*
X203062500Y-69000000D03*
%TD*%
D20*
%TO.C,R40*%
X89500000Y-68175000D03*
X89500000Y-70175000D03*
%TD*%
D10*
%TO.C,J13*%
X134400000Y-133800000D03*
D34*
X136500000Y-126500000D03*
D35*
X132300000Y-126500000D03*
X136500000Y-121000000D03*
X132300000Y-121000000D03*
%TD*%
D46*
%TO.C,L2*%
X146650000Y-113650000D03*
X146650000Y-112350000D03*
X144350000Y-112350000D03*
X144350000Y-113650000D03*
%TD*%
D37*
%TO.C,C53*%
X210500000Y-90562500D03*
X210500000Y-87437500D03*
%TD*%
D32*
%TO.C,D7*%
X148500000Y-62812500D03*
X148500000Y-64687500D03*
%TD*%
D46*
%TO.C,L1*%
X168650000Y-113650000D03*
X168650000Y-112350000D03*
X166350000Y-112350000D03*
X166350000Y-113650000D03*
%TD*%
D47*
%TO.C,J3*%
X77250000Y-48800000D03*
X76750000Y-48800000D03*
X76250000Y-48800000D03*
X75750000Y-48800000D03*
X75250000Y-48800000D03*
X74750000Y-48800000D03*
X74250000Y-48800000D03*
X73750000Y-48800000D03*
X73250000Y-48800000D03*
X72750000Y-48800000D03*
X72250000Y-48800000D03*
X71750000Y-48800000D03*
X71250000Y-48800000D03*
X70750000Y-48800000D03*
X70250000Y-48800000D03*
X69750000Y-48800000D03*
X69250000Y-48800000D03*
X68750000Y-48800000D03*
X68250000Y-48800000D03*
X67750000Y-48800000D03*
D48*
X79150000Y-45550000D03*
X65850000Y-45550000D03*
%TD*%
D49*
%TO.C,C52*%
X205062500Y-112500000D03*
X201937500Y-112500000D03*
%TD*%
D22*
%TO.C,C50*%
X89537500Y-72175000D03*
X87462500Y-72175000D03*
%TD*%
D29*
%TO.C,R7*%
X154000000Y-110000000D03*
X156000000Y-110000000D03*
%TD*%
D10*
%TO.C,J7*%
X111500000Y-133800000D03*
D34*
X111500000Y-126500000D03*
D35*
X111500000Y-121000000D03*
%TD*%
D18*
%TO.C,R77*%
X139500000Y-87000000D03*
X139500000Y-85000000D03*
%TD*%
D14*
%TO.C,R74*%
X142000000Y-109000000D03*
X140000000Y-109000000D03*
%TD*%
D10*
%TO.C,J8*%
X186000000Y-133800000D03*
X177600000Y-133800000D03*
D34*
X186000000Y-126500000D03*
D35*
X181800000Y-126500000D03*
X177600000Y-126500000D03*
X186000000Y-121000000D03*
X181800000Y-121000000D03*
X177600000Y-121000000D03*
%TD*%
D38*
%TO.C,D30*%
X163557500Y-58075000D03*
X164827500Y-58075000D03*
X166097500Y-58075000D03*
X167367500Y-58075000D03*
X167367500Y-52925000D03*
X166097500Y-52925000D03*
X164827500Y-52925000D03*
X163557500Y-52925000D03*
%TD*%
D10*
%TO.C,J5*%
X125000000Y-133800000D03*
D34*
X125000000Y-126500000D03*
D35*
X125000000Y-121000000D03*
%TD*%
D30*
%TO.C,C84*%
X137500000Y-84962500D03*
X137500000Y-87037500D03*
%TD*%
D29*
%TO.C,R2*%
X164500000Y-110000000D03*
X166500000Y-110000000D03*
%TD*%
D50*
%TO.C,D16*%
X84000000Y-78175000D03*
X79000000Y-78175000D03*
%TD*%
D51*
%TO.C,R39*%
X91550000Y-65175000D03*
X85450000Y-65175000D03*
%TD*%
D10*
%TO.C,J11*%
X156500000Y-133800000D03*
D34*
X158600000Y-126500000D03*
D35*
X154400000Y-126500000D03*
X158600000Y-121000000D03*
X154400000Y-121000000D03*
%TD*%
D14*
%TO.C,R23*%
X101000000Y-81500000D03*
X99000000Y-81500000D03*
%TD*%
D52*
%TO.C,D32*%
X92312490Y-103500010D03*
X94187490Y-103500010D03*
%TD*%
D53*
%TO.C,D35*%
X138450000Y-81062500D03*
X136550000Y-81062500D03*
X137500000Y-82937500D03*
%TD*%
D54*
%TO.C,L4*%
X51875000Y-81000000D03*
X61125000Y-81000000D03*
%TD*%
D52*
%TO.C,D39*%
X72312490Y-103500010D03*
X74187490Y-103500010D03*
%TD*%
D13*
%TO.C,D20*%
X211937500Y-116000000D03*
X210062500Y-116000000D03*
%TD*%
D20*
%TO.C,R37*%
X87500000Y-68175000D03*
X87500000Y-70175000D03*
%TD*%
D29*
%TO.C,R4*%
X143000000Y-78500000D03*
X145000000Y-78500000D03*
%TD*%
D30*
%TO.C,C49*%
X87500000Y-76137500D03*
X87500000Y-78212500D03*
%TD*%
D39*
%TO.C,C47*%
X87500000Y-83712500D03*
X87500000Y-81637500D03*
%TD*%
D55*
%TO.C,D14*%
X43100000Y-103500000D03*
X49900000Y-103500000D03*
%TD*%
D33*
%TO.C,H1*%
X40500000Y-46500000D03*
%TD*%
D20*
%TO.C,R3*%
X157250000Y-64750000D03*
X157250000Y-66750000D03*
%TD*%
D15*
%TO.C,D36*%
X134500000Y-107012500D03*
X134500000Y-109987500D03*
%TD*%
D56*
%TO.C,J1*%
X180500000Y-68210000D03*
D57*
X180500000Y-70750000D03*
X180500000Y-73290000D03*
X180500000Y-75830000D03*
%TD*%
D58*
%TO.C,D3*%
X175250000Y-75750000D03*
X177750000Y-75750000D03*
%TD*%
D29*
%TO.C,R63*%
X81000000Y-51000000D03*
X83000000Y-51000000D03*
%TD*%
D10*
%TO.C,J6*%
X118000000Y-133800000D03*
D34*
X118000000Y-126500000D03*
D35*
X118000000Y-121000000D03*
%TD*%
D18*
%TO.C,R75*%
X141500000Y-91500000D03*
X141500000Y-89500000D03*
%TD*%
D14*
%TO.C,R32*%
X100000000Y-79000000D03*
X98000000Y-79000000D03*
%TD*%
D53*
%TO.C,D2*%
X168450000Y-115562500D03*
X166550000Y-115562500D03*
X167500000Y-117437500D03*
%TD*%
D59*
%TO.C,U7*%
X95350000Y-82900000D03*
X95350000Y-82250000D03*
X95350000Y-81600000D03*
X95350000Y-80950000D03*
X95350000Y-80300000D03*
X95350000Y-79650000D03*
X95350000Y-79000000D03*
X95350000Y-78350000D03*
X95350000Y-77700000D03*
X95350000Y-77050000D03*
X95350000Y-76400000D03*
X95350000Y-75750000D03*
X95350000Y-75100000D03*
X95350000Y-74450000D03*
X89650000Y-74450000D03*
X89650000Y-75100000D03*
X89650000Y-75750000D03*
X89650000Y-76400000D03*
X89650000Y-77050000D03*
X89650000Y-77700000D03*
X89650000Y-78350000D03*
X89650000Y-79000000D03*
X89650000Y-79650000D03*
X89650000Y-80300000D03*
X89650000Y-80950000D03*
X89650000Y-81600000D03*
X89650000Y-82250000D03*
X89650000Y-82900000D03*
D60*
X92500000Y-78675000D03*
%TD*%
D20*
%TO.C,R79*%
X145500000Y-89500000D03*
X145500000Y-91500000D03*
%TD*%
D18*
%TO.C,R22*%
X196000000Y-111500000D03*
X196000000Y-109500000D03*
%TD*%
D38*
%TO.C,D28*%
X175557500Y-58075000D03*
X176827500Y-58075000D03*
X178097500Y-58075000D03*
X179367500Y-58075000D03*
X179367500Y-52925000D03*
X178097500Y-52925000D03*
X176827500Y-52925000D03*
X175557500Y-52925000D03*
%TD*%
%TO.C,D27*%
X63557500Y-58075000D03*
X64827500Y-58075000D03*
X66097500Y-58075000D03*
X67367500Y-58075000D03*
X67367500Y-52925000D03*
X66097500Y-52925000D03*
X64827500Y-52925000D03*
X63557500Y-52925000D03*
%TD*%
D40*
%TO.C,U9*%
X207150000Y-79300000D03*
X207150000Y-77000000D03*
D41*
X200850000Y-77000000D03*
D40*
X207150000Y-74700000D03*
%TD*%
D27*
%TO.C,Q1*%
X46040000Y-84725000D03*
D28*
X43500000Y-93875000D03*
D27*
X40960000Y-84725000D03*
%TD*%
D40*
%TO.C,U18*%
X96399990Y-110800010D03*
X96399990Y-108500010D03*
D41*
X90099990Y-108500010D03*
D40*
X96399990Y-106200010D03*
%TD*%
D30*
%TO.C,C32*%
X194000000Y-109462500D03*
X194000000Y-111537500D03*
%TD*%
D61*
%TO.C,D17*%
X201420000Y-109300000D03*
X203960000Y-109300000D03*
X206500000Y-109300000D03*
X209040000Y-109300000D03*
X211580000Y-109300000D03*
X211580000Y-98700000D03*
X209040000Y-98700000D03*
X201420000Y-98700000D03*
%TD*%
D40*
%TO.C,U8*%
X207150000Y-91300000D03*
X207150000Y-89000000D03*
D41*
X200850000Y-89000000D03*
D40*
X207150000Y-86700000D03*
%TD*%
D30*
%TO.C,C27*%
X177000000Y-109462500D03*
X177000000Y-111537500D03*
%TD*%
D38*
%TO.C,D29*%
X181557500Y-58075000D03*
X182827500Y-58075000D03*
X184097500Y-58075000D03*
X185367500Y-58075000D03*
X185367500Y-52925000D03*
X184097500Y-52925000D03*
X182827500Y-52925000D03*
X181557500Y-52925000D03*
%TD*%
D20*
%TO.C,R30*%
X101962500Y-72675000D03*
X101962500Y-74675000D03*
%TD*%
D18*
%TO.C,R71*%
X139500000Y-91500000D03*
X139500000Y-89500000D03*
%TD*%
D10*
%TO.C,J10*%
X167500000Y-133800000D03*
D34*
X169600000Y-126500000D03*
D35*
X165400000Y-126500000D03*
X169600000Y-121000000D03*
X165400000Y-121000000D03*
%TD*%
D50*
%TO.C,D15*%
X84000000Y-81675000D03*
X79000000Y-81675000D03*
%TD*%
D42*
%TO.C,C46*%
X97925000Y-72500000D03*
X100000000Y-72500000D03*
%TD*%
D33*
%TO.C,H4*%
X210500000Y-136500000D03*
%TD*%
D53*
%TO.C,D5*%
X146450000Y-115562500D03*
X144550000Y-115562500D03*
X145500000Y-117437500D03*
%TD*%
D38*
%TO.C,D26*%
X57557500Y-58075000D03*
X58827500Y-58075000D03*
X60097500Y-58075000D03*
X61367500Y-58075000D03*
X61367500Y-52925000D03*
X60097500Y-52925000D03*
X58827500Y-52925000D03*
X57557500Y-52925000D03*
%TD*%
D10*
%TO.C,J2*%
X50400000Y-133800000D03*
D34*
X52500000Y-126500000D03*
D35*
X48300000Y-126500000D03*
X52500000Y-121000000D03*
X48300000Y-121000000D03*
%TD*%
D62*
%TO.C,Y1*%
X144800000Y-74100000D03*
X144800000Y-71900000D03*
X143200000Y-71900000D03*
X143200000Y-74100000D03*
%TD*%
D49*
%TO.C,C56*%
X205562500Y-72000000D03*
X202437500Y-72000000D03*
%TD*%
D63*
%TO.C,U3*%
X153325000Y-72750000D03*
X153325000Y-73250000D03*
X153325000Y-73750000D03*
X153325000Y-74250000D03*
X153325000Y-74750000D03*
X153325000Y-75250000D03*
X153325000Y-75750000D03*
X153325000Y-76250000D03*
X153325000Y-76750000D03*
X153325000Y-77250000D03*
X153325000Y-77750000D03*
X153325000Y-78250000D03*
X153325000Y-78750000D03*
X153325000Y-79250000D03*
X153325000Y-79750000D03*
X153325000Y-80250000D03*
D64*
X155250000Y-82175000D03*
X155750000Y-82175000D03*
X156250000Y-82175000D03*
X156750000Y-82175000D03*
X157250000Y-82175000D03*
X157750000Y-82175000D03*
X158250000Y-82175000D03*
X158750000Y-82175000D03*
X159250000Y-82175000D03*
X159750000Y-82175000D03*
X160250000Y-82175000D03*
X160750000Y-82175000D03*
X161250000Y-82175000D03*
X161750000Y-82175000D03*
X162250000Y-82175000D03*
X162750000Y-82175000D03*
D63*
X164675000Y-80250000D03*
X164675000Y-79750000D03*
X164675000Y-79250000D03*
X164675000Y-78750000D03*
X164675000Y-78250000D03*
X164675000Y-77750000D03*
X164675000Y-77250000D03*
X164675000Y-76750000D03*
X164675000Y-76250000D03*
X164675000Y-75750000D03*
X164675000Y-75250000D03*
X164675000Y-74750000D03*
X164675000Y-74250000D03*
X164675000Y-73750000D03*
X164675000Y-73250000D03*
X164675000Y-72750000D03*
D64*
X162750000Y-70825000D03*
X162250000Y-70825000D03*
X161750000Y-70825000D03*
X161250000Y-70825000D03*
X160750000Y-70825000D03*
X160250000Y-70825000D03*
X159750000Y-70825000D03*
X159250000Y-70825000D03*
X158750000Y-70825000D03*
X158250000Y-70825000D03*
X157750000Y-70825000D03*
X157250000Y-70825000D03*
X156750000Y-70825000D03*
X156250000Y-70825000D03*
X155750000Y-70825000D03*
X155250000Y-70825000D03*
%TD*%
D53*
%TO.C,D42*%
X117950000Y-81062500D03*
X116050000Y-81062500D03*
X117000000Y-82937500D03*
%TD*%
D52*
%TO.C,D22*%
X41062500Y-128500000D03*
X42937500Y-128500000D03*
%TD*%
D29*
%TO.C,R24*%
X99000000Y-83500000D03*
X101000000Y-83500000D03*
%TD*%
D65*
%TO.C,U1*%
X157905000Y-53025000D03*
X156635000Y-53025000D03*
X155365000Y-53025000D03*
X154095000Y-53025000D03*
X154095000Y-57975000D03*
X155365000Y-57975000D03*
X156635000Y-57975000D03*
X157905000Y-57975000D03*
%TD*%
D54*
%TO.C,L3*%
X41875000Y-112500000D03*
X51125000Y-112500000D03*
%TD*%
D47*
%TO.C,J4*%
X183250000Y-48850000D03*
X182750000Y-48850000D03*
X182250000Y-48850000D03*
X181750000Y-48850000D03*
X181250000Y-48850000D03*
X180750000Y-48850000D03*
X180250000Y-48850000D03*
X179750000Y-48850000D03*
X179250000Y-48850000D03*
X178750000Y-48850000D03*
X178250000Y-48850000D03*
X177750000Y-48850000D03*
X177250000Y-48850000D03*
X176750000Y-48850000D03*
X176250000Y-48850000D03*
X175750000Y-48850000D03*
X175250000Y-48850000D03*
X174750000Y-48850000D03*
X174250000Y-48850000D03*
X173750000Y-48850000D03*
D48*
X185150000Y-45600000D03*
X171850000Y-45600000D03*
%TD*%
D22*
%TO.C,C17*%
X145037500Y-76500000D03*
X142962500Y-76500000D03*
%TD*%
D66*
%TO.C,C38*%
X54132323Y-96000000D03*
D67*
X59132323Y-96000000D03*
%TD*%
D29*
%TO.C,R36*%
X103500000Y-68000000D03*
X105500000Y-68000000D03*
%TD*%
D22*
%TO.C,C16*%
X145037500Y-69500000D03*
X142962500Y-69500000D03*
%TD*%
D20*
%TO.C,R26*%
X96500000Y-85675000D03*
X96500000Y-87675000D03*
%TD*%
D68*
%TO.C,D8*%
X127050000Y-91437500D03*
X128950000Y-91437500D03*
X128000000Y-89562500D03*
%TD*%
D23*
%TO.C,D34*%
X145937500Y-108950000D03*
X145937500Y-107050000D03*
X144062500Y-108000000D03*
%TD*%
D29*
%TO.C,R34*%
X98000000Y-77000000D03*
X100000000Y-77000000D03*
%TD*%
D49*
%TO.C,C54*%
X205562500Y-84000000D03*
X202437500Y-84000000D03*
%TD*%
D69*
X155250000Y-100250000D02*
X176250000Y-100250000D01*
X176250000Y-98750000D02*
X155250000Y-98750000D01*
X149750000Y-100250000D02*
G75*
G02*
X149750000Y-98750000I0J750000D01*
G01*
X149750000Y-98750000D02*
X155250000Y-98750000D01*
X176250000Y-98750000D02*
G75*
G02*
X176250000Y-100250000I0J-750000D01*
G01*
X149750000Y-100250000D02*
X155250000Y-100250000D01*
X140000000Y-100250000D02*
G75*
G02*
X140000000Y-98750000I0J750000D01*
G01*
X140000000Y-98750000D02*
X145500000Y-98750000D01*
X145500000Y-98750000D02*
G75*
G02*
X145500000Y-100250000I0J-750000D01*
G01*
X140000000Y-100250000D02*
X145500000Y-100250000D01*
X119000000Y-100250000D02*
X125000000Y-100250000D01*
X119000000Y-98750000D02*
X125000000Y-98750000D01*
X119000000Y-100250000D02*
G75*
G02*
X119000000Y-98750000I0J750000D01*
G01*
X125000000Y-98750000D02*
G75*
G02*
X125000000Y-100250000I0J-750000D01*
G01*
X98750000Y-101250000D02*
G75*
G02*
X98750000Y-99750000I0J750000D01*
G01*
X107750000Y-99750000D02*
G75*
G02*
X107750000Y-101250000I0J-750000D01*
G01*
X107750000Y-99750000D02*
X98750000Y-99750000D01*
X98750000Y-101250000D02*
X107750000Y-101250000D01*
X78750000Y-101250000D02*
X87750000Y-101250000D01*
X87750000Y-99750000D02*
X78750000Y-99750000D01*
X87750000Y-99750000D02*
G75*
G02*
X87750000Y-101250000I0J-750000D01*
G01*
X78750000Y-101250000D02*
G75*
G02*
X78750000Y-99750000I0J750000D01*
G01*
X36000002Y-46500002D02*
X36000002Y-136499998D01*
X36000002Y-46500002D02*
G75*
G02*
X40500002Y-42000002I4499998J2D01*
G01*
X40500002Y-140999998D02*
G75*
G02*
X36000002Y-136499998I-2J4499998D01*
G01*
X40500002Y-140999998D02*
X210500000Y-141000000D01*
X210499998Y-42000002D02*
X40500002Y-42000002D01*
X210499998Y-42000002D02*
G75*
G02*
X214999998Y-46500002I2J-4499998D01*
G01*
X215000000Y-136500000D02*
G75*
G02*
X210500000Y-141000000I-4500000J0D01*
G01*
X215000000Y-136500000D02*
X214999998Y-46500002D01*
M02*
