%TF.GenerationSoftware,KiCad,Pcbnew,10.0.1*%
%TF.CreationDate,2026-07-04T16:24:46+03:00*%
%TF.ProjectId,PSFB_MCU,50534642-5f4d-4435-952e-6b696361645f,rev?*%
%TF.SameCoordinates,Original*%
%TF.FileFunction,Paste,Bot*%
%TF.FilePolarity,Positive*%
%FSLAX46Y46*%
G04 Gerber Fmt 4.6, Leading zero omitted, Abs format (unit mm)*
G04 Created by KiCad (PCBNEW 10.0.1) date 2026-07-04 16:24:46*
%MOMM*%
%LPD*%
G01*
G04 APERTURE LIST*
G04 Aperture macros list*
%AMRoundRect*
0 Rectangle with rounded corners*
0 $1 Rounding radius*
0 $2 $3 $4 $5 $6 $7 $8 $9 X,Y pos of 4 corners*
0 Add a 4 corners polygon primitive as box body*
4,1,4,$2,$3,$4,$5,$6,$7,$8,$9,$2,$3,0*
0 Add four circle primitives for the rounded corners*
1,1,$1+$1,$2,$3*
1,1,$1+$1,$4,$5*
1,1,$1+$1,$6,$7*
1,1,$1+$1,$8,$9*
0 Add four rect primitives between the rounded corners*
20,1,$1+$1,$2,$3,$4,$5,0*
20,1,$1+$1,$4,$5,$6,$7,0*
20,1,$1+$1,$6,$7,$8,$9,0*
20,1,$1+$1,$8,$9,$2,$3,0*%
G04 Aperture macros list end*
%ADD10RoundRect,0.250000X-0.625000X0.312500X-0.625000X-0.312500X0.625000X-0.312500X0.625000X0.312500X0*%
%ADD11RoundRect,0.250000X0.337500X0.475000X-0.337500X0.475000X-0.337500X-0.475000X0.337500X-0.475000X0*%
%ADD12RoundRect,0.250000X-0.475000X0.337500X-0.475000X-0.337500X0.475000X-0.337500X0.475000X0.337500X0*%
%ADD13RoundRect,0.250000X0.625000X-0.312500X0.625000X0.312500X-0.625000X0.312500X-0.625000X-0.312500X0*%
%ADD14RoundRect,0.250000X-0.337500X-0.475000X0.337500X-0.475000X0.337500X0.475000X-0.337500X0.475000X0*%
%ADD15RoundRect,0.250000X0.475000X-0.337500X0.475000X0.337500X-0.475000X0.337500X-0.475000X-0.337500X0*%
%ADD16RoundRect,0.250000X-0.312500X-0.625000X0.312500X-0.625000X0.312500X0.625000X-0.312500X0.625000X0*%
%ADD17RoundRect,0.250000X0.350000X-0.275000X0.350000X0.275000X-0.350000X0.275000X-0.350000X-0.275000X0*%
%ADD18RoundRect,0.250000X-0.275000X-0.350000X0.275000X-0.350000X0.275000X0.350000X-0.275000X0.350000X0*%
%ADD19RoundRect,0.250000X-0.350000X0.275000X-0.350000X-0.275000X0.350000X-0.275000X0.350000X0.275000X0*%
%ADD20RoundRect,0.150000X-0.150000X0.512500X-0.150000X-0.512500X0.150000X-0.512500X0.150000X0.512500X0*%
%ADD21RoundRect,0.250000X0.350000X0.450000X-0.350000X0.450000X-0.350000X-0.450000X0.350000X-0.450000X0*%
%ADD22RoundRect,0.250000X-0.450000X0.350000X-0.450000X-0.350000X0.450000X-0.350000X0.450000X0.350000X0*%
%ADD23RoundRect,0.250000X-1.100000X0.412500X-1.100000X-0.412500X1.100000X-0.412500X1.100000X0.412500X0*%
%ADD24RoundRect,0.250000X-1.450000X0.400000X-1.450000X-0.400000X1.450000X-0.400000X1.450000X0.400000X0*%
%ADD25RoundRect,0.150000X-0.150000X0.587500X-0.150000X-0.587500X0.150000X-0.587500X0.150000X0.587500X0*%
%ADD26RoundRect,0.250000X-0.412500X-1.100000X0.412500X-1.100000X0.412500X1.100000X-0.412500X1.100000X0*%
%ADD27RoundRect,0.250001X0.507499X0.944999X-0.507499X0.944999X-0.507499X-0.944999X0.507499X-0.944999X0*%
%ADD28RoundRect,0.250000X-0.412500X-0.650000X0.412500X-0.650000X0.412500X0.650000X-0.412500X0.650000X0*%
%ADD29RoundRect,0.249999X-1.425001X0.450001X-1.425001X-0.450001X1.425001X-0.450001X1.425001X0.450001X0*%
%ADD30RoundRect,0.250000X0.450000X-0.350000X0.450000X0.350000X-0.450000X0.350000X-0.450000X-0.350000X0*%
%ADD31RoundRect,0.250000X0.650000X-0.412500X0.650000X0.412500X-0.650000X0.412500X-0.650000X-0.412500X0*%
%ADD32RoundRect,0.250000X-0.350000X-0.450000X0.350000X-0.450000X0.350000X0.450000X-0.350000X0.450000X0*%
%ADD33RoundRect,0.150000X0.150000X-0.512500X0.150000X0.512500X-0.150000X0.512500X-0.150000X-0.512500X0*%
%ADD34RoundRect,0.249999X1.425001X-0.450001X1.425001X0.450001X-1.425001X0.450001X-1.425001X-0.450001X0*%
%ADD35RoundRect,0.250000X0.412500X0.650000X-0.412500X0.650000X-0.412500X-0.650000X0.412500X-0.650000X0*%
%TA.AperFunction,Profile*%
%ADD36C,0.050000*%
%TD*%
G04 APERTURE END LIST*
D10*
%TO.C,R81*%
X114500000Y-111962500D03*
X114500000Y-109037500D03*
%TD*%
D11*
%TO.C,C101*%
X120962500Y-106000000D03*
X123037500Y-106000000D03*
%TD*%
D12*
%TO.C,C100*%
X125000000Y-91537500D03*
X125000000Y-89462500D03*
%TD*%
D13*
%TO.C,R85*%
X112000000Y-104037500D03*
X112000000Y-106962500D03*
%TD*%
D12*
%TO.C,C97*%
X122000000Y-87037500D03*
X122000000Y-84962500D03*
%TD*%
D13*
%TO.C,R89*%
X112000000Y-109037500D03*
X112000000Y-111962500D03*
%TD*%
D10*
%TO.C,R82*%
X114500000Y-106962500D03*
X114500000Y-104037500D03*
%TD*%
D14*
%TO.C,C102*%
X123037500Y-104000000D03*
X120962500Y-104000000D03*
%TD*%
D15*
%TO.C,C96*%
X119000000Y-89462500D03*
X119000000Y-91537500D03*
%TD*%
D11*
%TO.C,C103*%
X120962500Y-93000000D03*
X123037500Y-93000000D03*
%TD*%
D16*
%TO.C,R83*%
X114962500Y-101500000D03*
X112037500Y-101500000D03*
%TD*%
D14*
%TO.C,C104*%
X123037500Y-95000000D03*
X120962500Y-95000000D03*
%TD*%
D17*
%TO.C,FB8*%
X124000000Y-87150000D03*
X124000000Y-84850000D03*
%TD*%
D18*
%TO.C,FB7*%
X116850000Y-95000000D03*
X119150000Y-95000000D03*
%TD*%
D17*
%TO.C,FB3*%
X144500000Y-87150000D03*
X144500000Y-84850000D03*
%TD*%
D18*
%TO.C,FB2*%
X137350000Y-95000000D03*
X139650000Y-95000000D03*
%TD*%
D11*
%TO.C,C9*%
X149287500Y-79000000D03*
X147212500Y-79000000D03*
%TD*%
D19*
%TO.C,FB1*%
X151000000Y-78850000D03*
X151000000Y-81150000D03*
%TD*%
D20*
%TO.C,U4*%
X117050000Y-84862500D03*
X118000000Y-84862500D03*
X118950000Y-84862500D03*
X118950000Y-87137500D03*
X118000000Y-87137500D03*
X117050000Y-87137500D03*
%TD*%
D21*
%TO.C,R28*%
X198500000Y-106500000D03*
X196500000Y-106500000D03*
%TD*%
D22*
%TO.C,R10*%
X148500000Y-62750000D03*
X148500000Y-64750000D03*
%TD*%
D15*
%TO.C,C11*%
X156000000Y-56537500D03*
X156000000Y-54462500D03*
%TD*%
D23*
%TO.C,C41*%
X61000000Y-125937500D03*
X61000000Y-129062500D03*
%TD*%
D24*
%TO.C,L13*%
X99249990Y-92275010D03*
X99249990Y-96725010D03*
%TD*%
D14*
%TO.C,C57*%
X70425000Y-53000000D03*
X72500000Y-53000000D03*
%TD*%
D25*
%TO.C,D46*%
X177050000Y-115062500D03*
X178950000Y-115062500D03*
X178000000Y-116937500D03*
%TD*%
D26*
%TO.C,C39*%
X44937500Y-99000000D03*
X48062500Y-99000000D03*
%TD*%
D10*
%TO.C,R67*%
X125000000Y-115037500D03*
X125000000Y-117962500D03*
%TD*%
D14*
%TO.C,C30*%
X181462500Y-108500000D03*
X183537500Y-108500000D03*
%TD*%
D27*
%TO.C,C93*%
X82877490Y-106500010D03*
X79622490Y-106500010D03*
%TD*%
D28*
%TO.C,C18*%
X151937500Y-90500000D03*
X155062500Y-90500000D03*
%TD*%
%TO.C,C77*%
X99687490Y-111000010D03*
X102812490Y-111000010D03*
%TD*%
D15*
%TO.C,C106*%
X196000000Y-117037500D03*
X196000000Y-114962500D03*
%TD*%
D21*
%TO.C,R46*%
X67000000Y-103500000D03*
X65000000Y-103500000D03*
%TD*%
D15*
%TO.C,C6*%
X156000000Y-82287500D03*
X156000000Y-80212500D03*
%TD*%
D24*
%TO.C,L14*%
X79249990Y-92275010D03*
X79249990Y-96725010D03*
%TD*%
D29*
%TO.C,R72*%
X137000000Y-99950000D03*
X137000000Y-106050000D03*
%TD*%
D21*
%TO.C,R44*%
X205000000Y-69000000D03*
X203000000Y-69000000D03*
%TD*%
D14*
%TO.C,C5*%
X153250000Y-77000000D03*
X155325000Y-77000000D03*
%TD*%
%TO.C,C4*%
X153212500Y-73000000D03*
X155287500Y-73000000D03*
%TD*%
D30*
%TO.C,R13*%
X111000000Y-87000000D03*
X111000000Y-85000000D03*
%TD*%
D14*
%TO.C,C89*%
X141462500Y-95000000D03*
X143537500Y-95000000D03*
%TD*%
D31*
%TO.C,C91*%
X82749990Y-96562510D03*
X82749990Y-93437510D03*
%TD*%
%TO.C,C76*%
X102749990Y-96562510D03*
X102749990Y-93437510D03*
%TD*%
D14*
%TO.C,C48*%
X97962500Y-79000000D03*
X100037500Y-79000000D03*
%TD*%
D22*
%TO.C,R95*%
X186000000Y-115000000D03*
X186000000Y-117000000D03*
%TD*%
D30*
%TO.C,R96*%
X203500000Y-117000000D03*
X203500000Y-115000000D03*
%TD*%
D32*
%TO.C,R29*%
X196500000Y-112500000D03*
X198500000Y-112500000D03*
%TD*%
D13*
%TO.C,R76*%
X118000000Y-117962500D03*
X118000000Y-115037500D03*
%TD*%
D15*
%TO.C,C105*%
X181000000Y-117037500D03*
X181000000Y-114962500D03*
%TD*%
D12*
%TO.C,C20*%
X153000000Y-109962500D03*
X153000000Y-112037500D03*
%TD*%
D22*
%TO.C,R15*%
X177000000Y-104000000D03*
X177000000Y-106000000D03*
%TD*%
%TO.C,R98*%
X201000000Y-115000000D03*
X201000000Y-117000000D03*
%TD*%
D30*
%TO.C,R93*%
X188500000Y-117000000D03*
X188500000Y-115000000D03*
%TD*%
D14*
%TO.C,C87*%
X141462500Y-104000000D03*
X143537500Y-104000000D03*
%TD*%
%TO.C,C72*%
X170462500Y-55500000D03*
X172537500Y-55500000D03*
%TD*%
D30*
%TO.C,R97*%
X198500000Y-117000000D03*
X198500000Y-115000000D03*
%TD*%
D28*
%TO.C,C75*%
X102687490Y-91000010D03*
X105812490Y-91000010D03*
%TD*%
D22*
%TO.C,R9*%
X151040000Y-62750000D03*
X151040000Y-64750000D03*
%TD*%
D25*
%TO.C,D47*%
X192050000Y-115062500D03*
X193950000Y-115062500D03*
X193000000Y-116937500D03*
%TD*%
D11*
%TO.C,C73*%
X83037500Y-51000000D03*
X80962500Y-51000000D03*
%TD*%
D15*
%TO.C,C7*%
X162000000Y-82287500D03*
X162000000Y-80212500D03*
%TD*%
D14*
%TO.C,C45*%
X97962500Y-77000000D03*
X100037500Y-77000000D03*
%TD*%
D22*
%TO.C,R35*%
X86500000Y-76000000D03*
X86500000Y-78000000D03*
%TD*%
D14*
%TO.C,C63*%
X64425000Y-53000000D03*
X66500000Y-53000000D03*
%TD*%
D28*
%TO.C,C19*%
X151937500Y-93000000D03*
X155062500Y-93000000D03*
%TD*%
D12*
%TO.C,C36*%
X194500000Y-103962500D03*
X194500000Y-106037500D03*
%TD*%
D14*
%TO.C,C1*%
X153250000Y-75000000D03*
X155325000Y-75000000D03*
%TD*%
D12*
%TO.C,C15*%
X167500000Y-109962500D03*
X167500000Y-112037500D03*
%TD*%
D11*
%TO.C,C22*%
X164787500Y-75000000D03*
X162712500Y-75000000D03*
%TD*%
D14*
%TO.C,C66*%
X176462500Y-55500000D03*
X178537500Y-55500000D03*
%TD*%
%TO.C,C65*%
X176462500Y-53000000D03*
X178537500Y-53000000D03*
%TD*%
D12*
%TO.C,C26*%
X115000000Y-84962500D03*
X115000000Y-87037500D03*
%TD*%
D28*
%TO.C,C94*%
X79687490Y-103500010D03*
X82812490Y-103500010D03*
%TD*%
D26*
%TO.C,C37*%
X44937500Y-103500000D03*
X48062500Y-103500000D03*
%TD*%
D11*
%TO.C,C86*%
X143537500Y-106000000D03*
X141462500Y-106000000D03*
%TD*%
D30*
%TO.C,R94*%
X183500000Y-117000000D03*
X183500000Y-115000000D03*
%TD*%
D33*
%TO.C,U6*%
X193950000Y-111637500D03*
X193000000Y-111637500D03*
X192050000Y-111637500D03*
X192050000Y-109362500D03*
X193000000Y-109362500D03*
X193950000Y-109362500D03*
%TD*%
D14*
%TO.C,C69*%
X164462500Y-53000000D03*
X166537500Y-53000000D03*
%TD*%
D28*
%TO.C,C14*%
X165937500Y-93000000D03*
X169062500Y-93000000D03*
%TD*%
D14*
%TO.C,C60*%
X76425000Y-55500000D03*
X78500000Y-55500000D03*
%TD*%
D30*
%TO.C,R12*%
X114000000Y-91500000D03*
X114000000Y-89500000D03*
%TD*%
D27*
%TO.C,C78*%
X102877490Y-106500010D03*
X99622490Y-106500010D03*
%TD*%
D28*
%TO.C,C92*%
X79687490Y-111000010D03*
X82812490Y-111000010D03*
%TD*%
D12*
%TO.C,C82*%
X142500000Y-84962500D03*
X142500000Y-87037500D03*
%TD*%
D10*
%TO.C,R68*%
X127500000Y-112037500D03*
X127500000Y-114962500D03*
%TD*%
D14*
%TO.C,C61*%
X58425000Y-53000000D03*
X60500000Y-53000000D03*
%TD*%
D25*
%TO.C,D9*%
X178550000Y-100062500D03*
X180450000Y-100062500D03*
X179500000Y-101937500D03*
%TD*%
D14*
%TO.C,C70*%
X164462500Y-55500000D03*
X166537500Y-55500000D03*
%TD*%
D32*
%TO.C,R45*%
X41000000Y-128500000D03*
X43000000Y-128500000D03*
%TD*%
D28*
%TO.C,C90*%
X82687490Y-91000010D03*
X85812490Y-91000010D03*
%TD*%
D11*
%TO.C,C88*%
X143537500Y-93000000D03*
X141462500Y-93000000D03*
%TD*%
D14*
%TO.C,C68*%
X182462500Y-55500000D03*
X184537500Y-55500000D03*
%TD*%
D15*
%TO.C,C81*%
X139500000Y-91537500D03*
X139500000Y-89462500D03*
%TD*%
D21*
%TO.C,R17*%
X183500000Y-110500000D03*
X181500000Y-110500000D03*
%TD*%
%TO.C,R25*%
X198500000Y-110500000D03*
X196500000Y-110500000D03*
%TD*%
D10*
%TO.C,R70*%
X127500000Y-107037500D03*
X127500000Y-109962500D03*
%TD*%
D34*
%TO.C,R69*%
X132500000Y-106050000D03*
X132500000Y-99950000D03*
%TD*%
D35*
%TO.C,C80*%
X94812490Y-108500010D03*
X91687490Y-108500010D03*
%TD*%
D32*
%TO.C,R19*%
X181500000Y-112500000D03*
X183500000Y-112500000D03*
%TD*%
D35*
%TO.C,C95*%
X74812490Y-108500010D03*
X71687490Y-108500010D03*
%TD*%
D12*
%TO.C,C85*%
X145500000Y-89462500D03*
X145500000Y-91537500D03*
%TD*%
D13*
%TO.C,R73*%
X120500000Y-115462500D03*
X120500000Y-112537500D03*
%TD*%
D21*
%TO.C,R41*%
X205000000Y-94500000D03*
X203000000Y-94500000D03*
%TD*%
D14*
%TO.C,C43*%
X196462500Y-108500000D03*
X198537500Y-108500000D03*
%TD*%
%TO.C,C67*%
X182462500Y-53000000D03*
X184537500Y-53000000D03*
%TD*%
D32*
%TO.C,R80*%
X72249990Y-103500010D03*
X74249990Y-103500010D03*
%TD*%
D21*
%TO.C,R18*%
X183500000Y-106500000D03*
X181500000Y-106500000D03*
%TD*%
D12*
%TO.C,C35*%
X86000000Y-79962500D03*
X86000000Y-82037500D03*
%TD*%
D14*
%TO.C,C71*%
X170462500Y-53000000D03*
X172537500Y-53000000D03*
%TD*%
%TO.C,C59*%
X76425000Y-53000000D03*
X78500000Y-53000000D03*
%TD*%
D15*
%TO.C,C21*%
X160000000Y-82287500D03*
X160000000Y-80212500D03*
%TD*%
D11*
%TO.C,C2*%
X164787500Y-77000000D03*
X162712500Y-77000000D03*
%TD*%
D15*
%TO.C,C3*%
X158000000Y-82287500D03*
X158000000Y-80212500D03*
%TD*%
D25*
%TO.C,D10*%
X193550000Y-100062500D03*
X195450000Y-100062500D03*
X194500000Y-101937500D03*
%TD*%
D30*
%TO.C,R11*%
X117000000Y-91500000D03*
X117000000Y-89500000D03*
%TD*%
D12*
%TO.C,C34*%
X84000000Y-79962500D03*
X84000000Y-82037500D03*
%TD*%
D32*
%TO.C,R65*%
X92249990Y-103500010D03*
X94249990Y-103500010D03*
%TD*%
D28*
%TO.C,C79*%
X99687490Y-103500010D03*
X102812490Y-103500010D03*
%TD*%
D11*
%TO.C,C74*%
X189037500Y-51000000D03*
X186962500Y-51000000D03*
%TD*%
D23*
%TO.C,C51*%
X69000000Y-125937500D03*
X69000000Y-129062500D03*
%TD*%
D12*
%TO.C,C29*%
X179500000Y-103962500D03*
X179500000Y-106037500D03*
%TD*%
D14*
%TO.C,C58*%
X70425000Y-55500000D03*
X72500000Y-55500000D03*
%TD*%
D30*
%TO.C,R42*%
X92500000Y-123500000D03*
X92500000Y-121500000D03*
%TD*%
D22*
%TO.C,R20*%
X192000000Y-104000000D03*
X192000000Y-106000000D03*
%TD*%
D14*
%TO.C,C64*%
X64425000Y-55500000D03*
X66500000Y-55500000D03*
%TD*%
D34*
%TO.C,R66*%
X132500000Y-115050000D03*
X132500000Y-108950000D03*
%TD*%
D14*
%TO.C,C33*%
X98962500Y-83500000D03*
X101037500Y-83500000D03*
%TD*%
D11*
%TO.C,C8*%
X164787500Y-73000000D03*
X162712500Y-73000000D03*
%TD*%
D21*
%TO.C,R43*%
X212000000Y-116000000D03*
X210000000Y-116000000D03*
%TD*%
D22*
%TO.C,R14*%
X113000000Y-85000000D03*
X113000000Y-87000000D03*
%TD*%
D23*
%TO.C,C40*%
X65000000Y-125937500D03*
X65000000Y-129062500D03*
%TD*%
D12*
%TO.C,C25*%
X114000000Y-93462500D03*
X114000000Y-95537500D03*
%TD*%
D14*
%TO.C,C62*%
X58425000Y-55500000D03*
X60500000Y-55500000D03*
%TD*%
%TO.C,C12*%
X147212500Y-77000000D03*
X149287500Y-77000000D03*
%TD*%
D33*
%TO.C,U5*%
X178950000Y-111637500D03*
X178000000Y-111637500D03*
X177050000Y-111637500D03*
X177050000Y-109362500D03*
X178000000Y-109362500D03*
X178950000Y-109362500D03*
%TD*%
D28*
%TO.C,C13*%
X165937500Y-90500000D03*
X169062500Y-90500000D03*
%TD*%
D36*
X155250000Y-100250000D02*
X176250000Y-100250000D01*
X176250000Y-98750000D02*
X155250000Y-98750000D01*
X149750000Y-100250000D02*
G75*
G02*
X149750000Y-98750000I0J750000D01*
G01*
X149750000Y-98750000D02*
X155250000Y-98750000D01*
X176250000Y-98750000D02*
G75*
G02*
X176250000Y-100250000I0J-750000D01*
G01*
X149750000Y-100250000D02*
X155250000Y-100250000D01*
X140000000Y-100250000D02*
G75*
G02*
X140000000Y-98750000I0J750000D01*
G01*
X140000000Y-98750000D02*
X145500000Y-98750000D01*
X145500000Y-98750000D02*
G75*
G02*
X145500000Y-100250000I0J-750000D01*
G01*
X140000000Y-100250000D02*
X145500000Y-100250000D01*
X119000000Y-100250000D02*
X125000000Y-100250000D01*
X119000000Y-98750000D02*
X125000000Y-98750000D01*
X119000000Y-100250000D02*
G75*
G02*
X119000000Y-98750000I0J750000D01*
G01*
X125000000Y-98750000D02*
G75*
G02*
X125000000Y-100250000I0J-750000D01*
G01*
X98750000Y-101250000D02*
G75*
G02*
X98750000Y-99750000I0J750000D01*
G01*
X107750000Y-99750000D02*
G75*
G02*
X107750000Y-101250000I0J-750000D01*
G01*
X107750000Y-99750000D02*
X98750000Y-99750000D01*
X98750000Y-101250000D02*
X107750000Y-101250000D01*
X78750000Y-101250000D02*
X87750000Y-101250000D01*
X87750000Y-99750000D02*
X78750000Y-99750000D01*
X87750000Y-99750000D02*
G75*
G02*
X87750000Y-101250000I0J-750000D01*
G01*
X78750000Y-101250000D02*
G75*
G02*
X78750000Y-99750000I0J750000D01*
G01*
X36000002Y-46500002D02*
X36000002Y-136499998D01*
X36000002Y-46500002D02*
G75*
G02*
X40500002Y-42000002I4499998J2D01*
G01*
X40500002Y-140999998D02*
G75*
G02*
X36000002Y-136499998I-2J4499998D01*
G01*
X40500002Y-140999998D02*
X210500000Y-141000000D01*
X210499998Y-42000002D02*
X40500002Y-42000002D01*
X210499998Y-42000002D02*
G75*
G02*
X214999998Y-46500002I2J-4499998D01*
G01*
X215000000Y-136500000D02*
G75*
G02*
X210500000Y-141000000I-4500000J0D01*
G01*
X215000000Y-136500000D02*
X214999998Y-46500002D01*
M02*
